<?xml version="1.0" encoding="utf-8"?>
<!-- Generator: Adobe Illustrator 28.0.0, SVG Export Plug-In . SVG Version: 6.00 Build 0)  -->
<svg version="1.1" id="_圖層_1" xmlns="http://www.w3.org/2000/svg" xmlns:xlink="http://www.w3.org/1999/xlink" x="0px" y="0px"
	 viewBox="0 0 532 192.8" style="enable-background:new 0 0 532 192.8;" xml:space="preserve">
<style type="text/css">
	.st0{fill:#FFFFFF;}
</style>
<g id="_圖層_2">
	<g id="L">
		<path class="st0" d="M39.5,153.3c-2.7-2.7-4.1-6.2-4.1-9.9v-94c0-5.5-4.5-10-10-10H0v104.1c0,5.5,4.5,10,10,10h15.3
			c3.8,0,7.3,1.5,10,4.1c2.7,2.7,4.1,6.2,4.1,9.9v15.3c0,5.5,4.5,10,10,10h104.1v-35.4h-104C45.7,157.4,42.1,156,39.5,153.3
			L39.5,153.3z"/>
	</g>
	<g id="Y">
		<path class="st0" d="M118.1,25.3c0,3.8-1.5,7.3-4.1,9.9s-6.2,4.1-9.9,4.1H88.8c-3.8,0-7.3-1.5-9.9-4.1c-2.7-2.7-4.1-6.2-4.1-10V10
			c0-5.5-4.5-10-10-10H0v35.4h64.6c3.8,0,7.3,1.5,9.9,4.1c2.7,2.7,4.1,6.2,4.1,10v15.3c0,5.5,4.5,10,10,10h15.4c5.5,0,10-4.5,10-10
			V49.4c0-3.8,1.5-7.3,4.1-10s6.2-4.1,9.9-4.1h15.3c5.5,0,10-4.5,10-10V0h-35.4C118.1,0,118.1,25.3,118.1,25.3z"/>
	</g>
	<g id="S">
		<path class="st0" d="M157.5,39.5c2.7-2.7,6.2-4.1,9.9-4.1h25.3V0h-25.4c-5.5,0-10,4.5-10,10v15.3c0,3.8-1.5,7.3-4.1,10
			c-2.7,2.7-6.2,4.1-9.9,4.1h-15.3c-5.5,0-10,4.5-10,10v15.4c0,5.5,4.5,10,10,10h15.3c3.8,0,7.3,1.5,9.9,4.1s4.1,6.2,4.1,9.9V104
			c0,3.8-1.5,7.3-4.1,9.9c-2.7,2.7-6.2,4.1-9.9,4.1h-104v25.4c0,5.5,4.5,10,10,10h94.1c5.5,0,10-4.5,10-10v-15.3
			c0-3.8,1.5-7.3,4.1-9.9s6.2-4.1,9.9-4.1h15.3c5.5,0,10-4.5,10-10V88.7c0-5.5-4.5-10-10-10h-15.3c-3.8,0-7.3-1.5-9.9-4.1
			s-4.1-6.2-4.1-9.9V49.4C153.4,45.7,154.9,42.1,157.5,39.5z"/>
	</g>
</g>
<g>
	<path class="st0" d="M259.4,25.1L242.6,1.3h14.3l8.5,12.5l8.5-12.5h14.3l-16.9,23.8v22h-12L259.4,25.1L259.4,25.1z"/>
	<path class="st0" d="M294.4,24.2c0-3.4,0.6-6.6,1.9-9.5s3-5.5,5.2-7.7s4.9-3.9,8-5.1c3.1-1.2,6.5-1.9,10.3-1.9s7.1,0.6,10.2,1.9
		s5.8,2.9,8.1,5.1s4,4.7,5.3,7.7s1.9,6.1,1.9,9.5s-0.6,6.6-1.9,9.5s-3,5.5-5.3,7.7s-5,3.9-8.1,5.1c-3.1,1.2-6.5,1.8-10.2,1.8
		s-7.2-0.6-10.3-1.8s-5.8-2.9-8-5.1s-4-4.7-5.2-7.7S294.4,27.6,294.4,24.2z M306.9,24.2c0,1.8,0.3,3.5,1,5c0.7,1.5,1.6,2.9,2.8,4
		c1.2,1.1,2.5,2,4.1,2.6s3.2,0.9,5,0.9s3.4-0.3,5-0.9c1.6-0.6,3-1.5,4.1-2.6s2.1-2.5,2.8-4c0.7-1.5,1-3.2,1-5s-0.4-3.5-1-5
		c-0.7-1.5-1.6-2.9-2.8-4s-2.6-2-4.1-2.6s-3.2-0.9-5-0.9s-3.4,0.3-5,0.9c-1.6,0.6-2.9,1.5-4.1,2.6c-1.2,1.1-2.1,2.5-2.8,4
		C307.2,20.7,306.9,22.4,306.9,24.2z"/>
	<path class="st0" d="M372.2,1.3v24.9c0,1.3,0,2.7,0.1,4.1s0.4,2.7,0.9,3.8c0.5,1.1,1.3,2,2.4,2.8s2.6,1.1,4.6,1.1s3.5-0.3,4.6-1.1
		c1.1-0.7,1.9-1.6,2.4-2.8c0.5-1.1,0.8-2.4,1-3.8c0.1-1.4,0.1-2.8,0.1-4.1V1.3h11.9v26.5c0,7.1-1.6,12.3-4.9,15.6
		c-3.3,3.3-8.3,4.9-15.1,4.9s-11.8-1.6-15.1-4.9c-3.3-3.3-4.9-8.5-4.9-15.6V1.3H372.2z"/>
	<path class="st0" d="M455.6,47.1h-14.9l-11.4-17.6v17.6h-12V1.3h18.6c2.6,0,4.8,0.4,6.7,1.1s3.5,1.8,4.7,3.1s2.2,2.8,2.8,4.5
		s1,3.5,1,5.5c0,3.5-0.8,6.3-2.5,8.5s-4.2,3.6-7.5,4.4L455.6,47.1L455.6,47.1z M429.2,21.8h2.3c2.4,0,4.2-0.5,5.4-1.5
		c1.3-1,1.9-2.4,1.9-4.2s-0.6-3.2-1.9-4.2s-3.1-1.5-5.4-1.5h-2.3V21.8z"/>
	<path class="st0" d="M273.5,85.8c-1.3-1.1-2.6-1.8-3.9-2.3c-1.3-0.5-2.6-0.8-3.8-0.8c-1.5,0-2.8,0.4-3.8,1.1s-1.5,1.7-1.5,2.8
		c0,0.8,0.2,1.5,0.7,2c0.5,0.5,1.1,1,1.9,1.4c0.8,0.4,1.7,0.7,2.7,1s2,0.6,3,0.9c3.9,1.3,6.8,3,8.6,5.2c1.8,2.2,2.7,5,2.7,8.5
		c0,2.3-0.4,4.5-1.2,6.4s-2,3.5-3.5,4.9c-1.5,1.4-3.4,2.4-5.6,3.2c-2.2,0.8-4.7,1.1-7.5,1.1c-5.8,0-11.2-1.7-16.2-5.2l5.1-9.6
		c1.8,1.6,3.6,2.8,5.3,3.5c1.8,0.8,3.5,1.2,5.2,1.2c2,0,3.4-0.4,4.4-1.3c1-0.9,1.4-1.9,1.4-3c0-0.7-0.1-1.3-0.4-1.8
		c-0.2-0.5-0.6-1-1.2-1.4s-1.3-0.8-2.2-1.2s-2-0.8-3.3-1.2c-1.5-0.5-3.1-1-4.6-1.6c-1.5-0.6-2.8-1.4-4-2.3s-2.1-2.2-2.8-3.7
		c-0.7-1.5-1.1-3.3-1.1-5.6s0.4-4.3,1.1-6.2s1.8-3.4,3.2-4.7c1.4-1.3,3-2.3,5-3.1s4.2-1.1,6.6-1.1c2.3,0,4.7,0.3,7.1,0.9
		c2.5,0.6,4.9,1.6,7.1,2.8L273.5,85.8L273.5,85.8z"/>
	<path class="st0" d="M302.8,74.1l7.9,29.5l9.8-29.5h9.5l9.8,29.5l7.9-29.5h12.5l-13.7,45.7h-12.2l-9-26.5l-9,26.5H304l-13.7-45.7
		L302.8,74.1L302.8,74.1z"/>
	<path class="st0" d="M384.3,74.1v45.7h-12V74.1C372.4,74.1,384.3,74.1,384.3,74.1z"/>
	<path class="st0" d="M418.8,84.2v35.7h-12V84.2H397V74.1h31.6v10.1H418.8L418.8,84.2z"/>
	<path class="st0" d="M473.9,89.4c-2.8-3.3-6.2-5-10.2-5c-1.8,0-3.5,0.3-5,1c-1.5,0.7-2.8,1.5-3.9,2.6s-2,2.4-2.6,4
		c-0.6,1.5-1,3.2-1,5s0.3,3.5,1,5c0.6,1.5,1.5,2.9,2.6,4s2.4,2,3.9,2.7c1.5,0.7,3.1,1,4.9,1c3.8,0,7.3-1.6,10.3-4.8v14.1l-1.2,0.4
		c-1.8,0.7-3.5,1.1-5.1,1.4c-1.6,0.3-3.1,0.5-4.7,0.5c-3.2,0-6.2-0.6-9.1-1.8c-2.9-1.2-5.5-2.9-7.7-5c-2.2-2.2-4-4.7-5.3-7.7
		s-2-6.2-2-9.7s0.7-6.7,2-9.7s3.1-5.5,5.3-7.6s4.8-3.8,7.7-5s6-1.8,9.2-1.8c1.8,0,3.6,0.2,5.4,0.6c1.8,0.4,3.6,1,5.6,1.8L473.9,89.4
		L473.9,89.4z"/>
	<path class="st0" d="M502.7,91.7H520V74.1h12v45.7h-12V101h-17.3v18.9h-12V74.1h12L502.7,91.7L502.7,91.7z"/>
	<path class="st0" d="M260.2,146.9v35.7h14.3v10.1h-26.3v-45.7L260.2,146.9L260.2,146.9z"/>
	<path class="st0" d="M300,146.9v45.7h-12v-45.7H300z"/>
	<path class="st0" d="M343.4,156.9H329v7.6h13.1v10.1H329v17.9h-12v-45.7h26.4L343.4,156.9L343.4,156.9z"/>
	<path class="st0" d="M384,156.9h-14.2v7.6h13.4v10.1h-13.4v7.9H384v10.1h-26.2v-45.7H384V156.9z"/>
</g>
</svg>
