<?xml version="1.0" encoding="utf-8"?>
<!-- Generator: Adobe Illustrator 28.2.0, SVG Export Plug-In . SVG Version: 6.00 Build 0)  -->
<svg version="1.1" id="圖層_1" xmlns="http://www.w3.org/2000/svg" xmlns:xlink="http://www.w3.org/1999/xlink" x="0px" y="0px"
	 viewBox="0 0 91.9 35.2" style="enable-background:new 0 0 91.9 35.2;" xml:space="preserve">
<style type="text/css">
	.st0{fill:#FFFFFF;}
</style>
<g id="_圖層_2_00000003821404386903138840000011420051136463052194_">
	<g id="L_00000170964264407698171990000009477223227361660599_">
		<path class="st0" d="M7.2,28c-0.5-0.5-0.8-1.1-0.8-1.8V9c0-1-0.8-1.8-1.8-1.8H0v19c0,1,0.8,1.8,1.8,1.8h2.8c0.7,0,1.3,0.3,1.8,0.8
			c0.5,0.5,0.8,1.1,0.8,1.8v2.8c0,1,0.8,1.8,1.8,1.8h19v-6.5H9C8.3,28.8,7.7,28.5,7.2,28L7.2,28z"/>
	</g>
	<g id="Y_00000119102549278613251630000002790325988117734060_">
		<path class="st0" d="M21.6,4.6c0,0.7-0.3,1.3-0.8,1.8c-0.5,0.5-1.1,0.8-1.8,0.8h-2.8c-0.7,0-1.3-0.3-1.8-0.8
			c-0.5-0.5-0.8-1.1-0.8-1.8V1.8c0-1-0.8-1.8-1.8-1.8H0v6.5h11.8c0.7,0,1.3,0.3,1.8,0.8c0.5,0.5,0.8,1.1,0.8,1.8v2.8
			c0,1,0.8,1.8,1.8,1.8H19c1,0,1.8-0.8,1.8-1.8V9c0-0.7,0.3-1.3,0.8-1.8c0.5-0.5,1.1-0.8,1.8-0.8h2.8c1,0,1.8-0.8,1.8-1.8V0h-6.4
			V4.6z"/>
	</g>
	<g id="S_00000070808664895190897660000010712409964373098113_">
		<path class="st0" d="M28.8,7.2c0.5-0.5,1.1-0.8,1.8-0.8h4.6V0h-4.6c-1,0-1.8,0.8-1.8,1.8v2.8c0,0.7-0.3,1.3-0.8,1.8
			c-0.5,0.5-1.1,0.8-1.8,0.8h-2.8c-1,0-1.8,0.8-1.8,1.8v2.8c0,1,0.8,1.8,1.8,1.8h2.8c0.7,0,1.3,0.3,1.8,0.8c0.5,0.5,0.8,1.1,0.8,1.8
			V19c0,0.7-0.3,1.3-0.8,1.8c-0.5,0.5-1.1,0.8-1.8,0.8h-19v4.6C7.2,27.2,8,28,9,28h17.2c1,0,1.8-0.8,1.8-1.8v-2.8
			c0-0.7,0.3-1.3,0.8-1.8c0.5-0.5,1.1-0.8,1.8-0.8h2.8c1,0,1.8-0.8,1.8-1.8v-2.8c0-1-0.8-1.8-1.8-1.8h-2.8c-0.7,0-1.3-0.3-1.8-0.8
			c-0.5-0.5-0.8-1.1-0.8-1.8V9C28,8.3,28.3,7.7,28.8,7.2z"/>
	</g>
</g>
<g>
	<path class="st0" d="M42.1,4.6l-3.1-4.3h2.6l1.6,2.3l1.5-2.3h2.6l-3.1,4.3v4h-2.2L42.1,4.6L42.1,4.6z"/>
	<path class="st0" d="M48.5,4.4c0-0.6,0.1-1.2,0.3-1.7s0.5-1,1-1.4s0.9-0.7,1.5-0.9S52.5,0,53.2,0s1.3,0.1,1.9,0.3s1.1,0.5,1.5,0.9
		c0.4,0.4,0.7,0.9,1,1.4c0.2,0.5,0.3,1.1,0.3,1.7s-0.1,1.2-0.3,1.7c-0.2,0.5-0.6,1-1,1.4C56.1,8,55.6,8.3,55,8.5
		c-0.6,0.2-1.2,0.3-1.9,0.3s-1.3-0.1-1.9-0.3c-0.6-0.2-1.1-0.5-1.5-0.9c-0.4-0.4-0.7-0.9-1-1.4C48.6,5.6,48.5,5,48.5,4.4z M50.8,4.4
		c0,0.3,0.1,0.6,0.2,0.9c0.1,0.3,0.3,0.5,0.5,0.7c0.2,0.2,0.5,0.4,0.8,0.5c0.3,0.1,0.6,0.2,0.9,0.2c0.3,0,0.6-0.1,0.9-0.2
		c0.3-0.1,0.5-0.3,0.8-0.5c0.2-0.2,0.4-0.4,0.5-0.7c0.1-0.3,0.2-0.6,0.2-0.9c0-0.3-0.1-0.6-0.2-0.9C55.2,3.2,55,3,54.8,2.8
		c-0.2-0.2-0.5-0.4-0.8-0.5c-0.3-0.1-0.6-0.2-0.9-0.2c-0.3,0-0.6,0.1-0.9,0.2c-0.3,0.1-0.5,0.3-0.8,0.5C51.3,3,51.1,3.2,51,3.5
		C50.9,3.8,50.8,4.1,50.8,4.4z"/>
	<path class="st0" d="M62.7,0.2v4.5c0,0.2,0,0.5,0,0.7s0.1,0.5,0.2,0.7c0.1,0.2,0.2,0.4,0.4,0.5c0.2,0.1,0.5,0.2,0.8,0.2
		c0.4,0,0.6-0.1,0.8-0.2c0.2-0.1,0.3-0.3,0.4-0.5c0.1-0.2,0.1-0.4,0.2-0.7c0-0.3,0-0.5,0-0.7V0.2h2.2v4.8c0,1.3-0.3,2.3-0.9,2.8
		c-0.6,0.6-1.5,0.9-2.8,0.9c-1.2,0-2.2-0.3-2.8-0.9c-0.6-0.6-0.9-1.5-0.9-2.8V0.2C60.6,0.2,62.7,0.2,62.7,0.2z"/>
	<path class="st0" d="M78,8.6h-2.7l-2.1-3.2v3.2H71V0.2h3.4c0.5,0,0.9,0.1,1.2,0.2s0.6,0.3,0.9,0.6c0.2,0.2,0.4,0.5,0.5,0.8
		s0.2,0.6,0.2,1c0,0.6-0.1,1.2-0.5,1.5c-0.3,0.4-0.8,0.7-1.4,0.8L78,8.6L78,8.6z M73.2,4h0.4c0.4,0,0.8-0.1,1-0.3
		c0.2-0.2,0.3-0.4,0.3-0.8s-0.1-0.6-0.3-0.8c-0.2-0.2-0.6-0.3-1-0.3h-0.4V4z"/>
	<path class="st0" d="M44.7,15.7c-0.2-0.2-0.5-0.3-0.7-0.4c-0.2-0.1-0.5-0.1-0.7-0.1c-0.3,0-0.5,0.1-0.7,0.2
		c-0.2,0.1-0.3,0.3-0.3,0.5c0,0.1,0,0.3,0.1,0.4c0.1,0.1,0.2,0.2,0.4,0.2s0.3,0.1,0.5,0.2c0.2,0,0.4,0.1,0.5,0.2
		c0.7,0.2,1.2,0.6,1.6,1c0.3,0.4,0.5,0.9,0.5,1.5c0,0.4-0.1,0.8-0.2,1.2s-0.4,0.6-0.6,0.9c-0.3,0.2-0.6,0.4-1,0.6
		c-0.4,0.1-0.9,0.2-1.4,0.2c-1.1,0-2.1-0.3-3-0.9l0.9-1.8c0.3,0.3,0.7,0.5,1,0.6c0.3,0.1,0.6,0.2,1,0.2c0.4,0,0.6-0.1,0.8-0.2
		c0.2-0.2,0.3-0.3,0.3-0.6c0-0.1,0-0.2-0.1-0.3c0-0.1-0.1-0.2-0.2-0.3s-0.2-0.1-0.4-0.2c-0.2-0.1-0.4-0.1-0.6-0.2
		c-0.3-0.1-0.6-0.2-0.8-0.3c-0.3-0.1-0.5-0.2-0.7-0.4c-0.2-0.2-0.4-0.4-0.5-0.7c-0.1-0.3-0.2-0.6-0.2-1c0-0.4,0.1-0.8,0.2-1.1
		c0.1-0.3,0.3-0.6,0.6-0.9c0.2-0.2,0.6-0.4,0.9-0.6c0.4-0.1,0.8-0.2,1.2-0.2c0.4,0,0.9,0.1,1.3,0.2c0.4,0.1,0.9,0.3,1.3,0.5
		L44.7,15.7L44.7,15.7z"/>
	<path class="st0" d="M50.1,13.5l1.4,5.4l1.8-5.4H55l1.8,5.4l1.4-5.4h2.3L58,21.9h-2.2l-1.6-4.8l-1.6,4.8h-2.2l-2.5-8.4L50.1,13.5
		L50.1,13.5z"/>
	<path class="st0" d="M65,13.5v8.4h-2.2v-8.4C62.8,13.5,65,13.5,65,13.5z"/>
	<path class="st0" d="M71.3,15.4v6.5h-2.2v-6.5h-1.8v-1.8H73v1.8H71.3L71.3,15.4z"/>
	<path class="st0" d="M81.3,16.3c-0.5-0.6-1.1-0.9-1.9-0.9c-0.3,0-0.6,0.1-0.9,0.2c-0.3,0.1-0.5,0.3-0.7,0.5
		c-0.2,0.2-0.4,0.4-0.5,0.7c-0.1,0.3-0.2,0.6-0.2,0.9s0.1,0.6,0.2,0.9c0.1,0.3,0.3,0.5,0.5,0.7c0.2,0.2,0.4,0.4,0.7,0.5
		c0.3,0.1,0.6,0.2,0.9,0.2c0.7,0,1.3-0.3,1.9-0.9v2.6l-0.2,0.1c-0.3,0.1-0.6,0.2-0.9,0.3c-0.3,0.1-0.6,0.1-0.9,0.1
		c-0.6,0-1.1-0.1-1.7-0.3c-0.5-0.2-1-0.5-1.4-0.9c-0.4-0.4-0.7-0.9-1-1.4c-0.2-0.5-0.4-1.1-0.4-1.8s0.1-1.2,0.4-1.8
		c0.2-0.5,0.6-1,1-1.4c0.4-0.4,0.9-0.7,1.4-0.9c0.5-0.2,1.1-0.3,1.7-0.3c0.3,0,0.7,0,1,0.1s0.7,0.2,1,0.3L81.3,16.3L81.3,16.3z"/>
	<path class="st0" d="M86.6,16.8h3.2v-3.2h2.2v8.4h-2.2v-3.4h-3.2v3.4h-2.2v-8.4h2.2V16.8L86.6,16.8z"/>
	<path class="st0" d="M42.3,26.8v6.5h2.6v1.8h-4.8v-8.4L42.3,26.8L42.3,26.8z"/>
	<path class="st0" d="M49.6,26.8v8.4h-2.2v-8.4C47.4,26.8,49.6,26.8,49.6,26.8z"/>
	<path class="st0" d="M57.5,28.7h-2.6v1.4h2.4v1.8h-2.4v3.3h-2.2v-8.4h4.8L57.5,28.7L57.5,28.7z"/>
	<path class="st0" d="M64.9,28.7h-2.6v1.4h2.5v1.8h-2.5v1.4h2.6v1.8h-4.8v-8.4h4.8V28.7z"/>
</g>
</svg>
