<?xml version="1.0" encoding="utf-8"?>
<!-- Generator: Adobe Illustrator 28.0.0, SVG Export Plug-In . SVG Version: 6.00 Build 0)  -->
<svg version="1.1" id="_圖層_1" xmlns="http://www.w3.org/2000/svg" xmlns:xlink="http://www.w3.org/1999/xlink" x="0px" y="0px"
	 viewBox="0 0 330.2 238.6" style="enable-background:new 0 0 330.2 238.6;" xml:space="preserve">
<style type="text/css">
	.st0{fill:#FFFFFF;}
</style>
<g id="_圖層_2">
	<g id="L">
		<path class="st0" d="M108.2,153.3c-2.7-2.7-4.1-6.2-4.1-9.9v-94c0-5.5-4.5-10-10-10H68.7v104.1c0,5.5,4.5,10,10,10H94
			c3.8,0,7.3,1.5,9.9,4.1c2.7,2.7,4.1,6.2,4.1,9.9v15.3c0,5.5,4.5,10,10,10h104.1v-35.4h-104C114.4,157.4,110.9,156,108.2,153.3
			L108.2,153.3z"/>
	</g>
	<g id="Y">
		<path class="st0" d="M186.8,25.3c0,3.8-1.5,7.3-4.1,9.9s-6.2,4.1-10,4.1h-15.2c-3.8,0-7.3-1.5-10-4.1s-4.1-6.2-4.1-10V10
			c0-5.5-4.5-10-10-10H68.7v35.4h64.6c3.8,0,7.3,1.5,10,4.1s4.1,6.2,4.1,10v15.3c0,5.5,4.5,10,10,10h15.4c5.5,0,10-4.5,10-10V49.4
			c0-3.8,1.5-7.3,4.1-10s6.2-4.1,10-4.1h15.3c5.5,0,10-4.5,10-10V0h-35.4V25.3z"/>
	</g>
	<g id="S">
		<path class="st0" d="M226.3,39.5c2.7-2.7,6.2-4.1,10-4.1h25.3V0h-25.4c-5.5,0-10,4.5-10,10v15.3c0,3.8-1.5,7.3-4.1,10
			s-6.2,4.1-10,4.1h-15.3c-5.5,0-10,4.5-10,10v15.4c0,5.5,4.5,10,10,10h15.3c3.8,0,7.3,1.5,10,4.1s4.1,6.2,4.1,9.9V104
			c0,3.8-1.5,7.3-4.1,9.9c-2.7,2.7-6.2,4.1-10,4.1h-104v25.4c0,5.5,4.5,10,10,10h94.1c5.5,0,10-4.5,10-10v-15.3
			c0-3.8,1.5-7.3,4.1-9.9s6.2-4.1,10-4.1h15.3c5.5,0,10-4.5,10-10V88.7c0-5.5-4.5-10-10-10h-15.3c-3.8,0-7.3-1.5-10-4.1
			s-4.1-6.2-4.1-9.9V49.4C222.1,45.7,223.6,42.1,226.3,39.5z"/>
	</g>
</g>
<g>
	<path class="st0" d="M7.7,228.5L0,217.6h6.6l3.9,5.8l3.9-5.8H21l-7.8,10.9v10.1H7.7V228.5z"/>
	<path class="st0" d="M23.8,228.1c0-1.6,0.3-3,0.9-4.4s1.4-2.5,2.4-3.5c1-1,2.3-1.8,3.7-2.4c1.4-0.6,3-0.9,4.7-0.9s3.3,0.3,4.7,0.9
		s2.7,1.4,3.7,2.4s1.9,2.2,2.4,3.5s0.9,2.8,0.9,4.4s-0.3,3-0.9,4.4S45,235,44,236c-1,1-2.3,1.8-3.7,2.4s-3,0.9-4.7,0.9
		s-3.3-0.3-4.7-0.9s-2.7-1.4-3.7-2.4c-1-1-1.8-2.2-2.4-3.5S23.8,229.7,23.8,228.1z M29.6,228.1c0,0.8,0.2,1.6,0.5,2.3
		c0.3,0.7,0.8,1.3,1.3,1.8c0.5,0.5,1.2,0.9,1.9,1.2c0.7,0.3,1.5,0.4,2.3,0.4s1.6-0.1,2.3-0.4c0.7-0.3,1.4-0.7,1.9-1.2s1-1.1,1.3-1.8
		s0.5-1.5,0.5-2.3s-0.2-1.6-0.5-2.3s-0.8-1.3-1.3-1.8c-0.6-0.5-1.2-0.9-1.9-1.2c-0.7-0.3-1.5-0.4-2.3-0.4s-1.6,0.1-2.3,0.4
		c-0.7,0.3-1.4,0.7-1.9,1.2c-0.5,0.5-1,1.1-1.3,1.8C29.7,226.5,29.6,227.3,29.6,228.1z"/>
	<path class="st0" d="M59.6,217.6V229c0,0.6,0,1.2,0.1,1.9s0.2,1.2,0.4,1.7s0.6,0.9,1.1,1.3s1.2,0.5,2.1,0.5s1.6-0.2,2.1-0.5
		s0.9-0.8,1.1-1.3s0.4-1.1,0.4-1.7s0.1-1.3,0.1-1.9v-11.4h5.5v12.2c0,3.3-0.8,5.7-2.3,7.2s-3.8,2.3-6.9,2.3s-5.4-0.8-7-2.3
		c-1.5-1.5-2.3-3.9-2.3-7.2v-12.2H59.6L59.6,217.6z"/>
	<path class="st0" d="M98,238.6h-6.9l-5.2-8.1v8.1h-5.5v-21h8.6c1.2,0,2.2,0.2,3.1,0.5c0.9,0.3,1.6,0.8,2.2,1.4
		c0.6,0.6,1,1.3,1.3,2.1s0.4,1.6,0.4,2.5c0,1.6-0.4,2.9-1.2,3.9c-0.8,1-1.9,1.7-3.4,2L98,238.6L98,238.6z M85.9,227h1
		c1.1,0,1.9-0.2,2.5-0.7s0.9-1.1,0.9-1.9s-0.3-1.5-0.9-1.9s-1.4-0.7-2.5-0.7h-1V227L85.9,227z"/>
	<path class="st0" d="M128.2,223c-0.6-0.5-1.2-0.8-1.8-1.1c-0.6-0.2-1.2-0.4-1.7-0.4c-0.7,0-1.3,0.2-1.7,0.5
		c-0.4,0.3-0.7,0.8-0.7,1.3c0,0.4,0.1,0.7,0.3,0.9c0.2,0.2,0.5,0.4,0.9,0.6s0.8,0.3,1.2,0.5s0.9,0.3,1.4,0.4
		c1.8,0.6,3.1,1.4,3.9,2.4c0.8,1,1.2,2.3,1.2,3.9c0,1.1-0.2,2.1-0.5,2.9c-0.4,0.9-0.9,1.6-1.6,2.2s-1.6,1.1-2.6,1.4
		s-2.2,0.5-3.5,0.5c-2.7,0-5.2-0.8-7.4-2.4l2.4-4.4c0.8,0.7,1.6,1.3,2.4,1.6s1.6,0.5,2.4,0.5c0.9,0,1.6-0.2,2-0.6
		c0.4-0.4,0.7-0.9,0.7-1.4c0-0.3-0.1-0.6-0.2-0.8s-0.3-0.4-0.6-0.6c-0.3-0.2-0.6-0.4-1-0.5c-0.4-0.2-0.9-0.4-1.5-0.6
		c-0.7-0.2-1.4-0.5-2.1-0.7s-1.3-0.6-1.8-1.1c-0.5-0.4-1-1-1.3-1.7c-0.3-0.7-0.5-1.5-0.5-2.6s0.2-2,0.5-2.8c0.4-0.9,0.8-1.6,1.5-2.2
		s1.4-1.1,2.3-1.4c0.9-0.3,1.9-0.5,3.1-0.5c1.1,0,2.1,0.1,3.3,0.4c1.1,0.3,2.2,0.7,3.3,1.3L128.2,223L128.2,223z"/>
	<path class="st0" d="M141.6,217.6l3.6,13.6l4.5-13.6h4.4l4.5,13.6l3.6-13.6h5.8l-6.3,21h-5.6l-4.2-12.2l-4.2,12.2h-5.6l-6.3-21
		L141.6,217.6L141.6,217.6z"/>
	<path class="st0" d="M179.1,217.6v21h-5.5v-21L179.1,217.6L179.1,217.6z"/>
	<path class="st0" d="M195,222.2v16.4h-5.5v-16.4H185v-4.6h14.5v4.6H195L195,222.2z"/>
	<path class="st0" d="M220.4,224.6c-1.3-1.5-2.8-2.3-4.7-2.3c-0.8,0-1.6,0.1-2.3,0.4s-1.3,0.7-1.8,1.2c-0.5,0.5-0.9,1.1-1.2,1.8
		s-0.4,1.5-0.4,2.3s0.1,1.6,0.4,2.3c0.3,0.7,0.7,1.3,1.2,1.8c0.5,0.5,1.1,0.9,1.8,1.2s1.4,0.4,2.2,0.4c1.8,0,3.3-0.7,4.8-2.2v6.5
		l-0.6,0.2c-0.8,0.3-1.6,0.5-2.4,0.7c-0.7,0.1-1.5,0.2-2.2,0.2c-1.5,0-2.9-0.3-4.2-0.8c-1.3-0.6-2.5-1.3-3.5-2.3s-1.8-2.2-2.5-3.5
		c-0.6-1.4-0.9-2.9-0.9-4.5s0.3-3.1,0.9-4.4s1.4-2.5,2.4-3.5c1-1,2.2-1.7,3.5-2.3c1.4-0.6,2.8-0.8,4.2-0.8c0.8,0,1.7,0.1,2.5,0.3
		c0.8,0.2,1.7,0.4,2.6,0.8L220.4,224.6L220.4,224.6z"/>
	<path class="st0" d="M233.6,225.7h8v-8.1h5.5v21h-5.5v-8.7h-8v8.7h-5.5v-21h5.5V225.7L233.6,225.7z"/>
	<path class="st0" d="M273.3,217.6V234h6.6v4.6h-12.1v-21L273.3,217.6L273.3,217.6z"/>
	<path class="st0" d="M291.6,217.6v21h-5.5v-21L291.6,217.6L291.6,217.6z"/>
	<path class="st0" d="M311.5,222.2h-6.6v3.5h6v4.6h-6v8.3h-5.5v-21h12.1V222.2L311.5,222.2z"/>
	<path class="st0" d="M330.2,222.2h-6.5v3.5h6.2v4.6h-6.2v3.6h6.5v4.6h-12v-21h12V222.2L330.2,222.2z"/>
</g>
</svg>
