<?xml version="1.0" encoding="UTF-8"?>
<svg id="_圖層_1" data-name="圖層 1" xmlns="http://www.w3.org/2000/svg" viewBox="0 0 104.41 40.01">
  <defs>
    <style>
      .cls-1 {
        fill: #676767;
      }
    </style>
  </defs>
  <g id="_圖層_2" data-name=" 圖層 2">
    <g id="L">
      <path class="cls-1" d="M8.2,31.81c-.55-.55-.86-1.29-.86-2.06V10.24c0-1.14-.93-2.07-2.07-2.07H0V29.77c0,1.14,.93,2.07,2.07,2.07h3.17c.78,0,1.52,.3,2.06,.86s.86,1.29,.86,2.06v3.17c0,1.14,.93,2.07,2.07,2.07H31.84v-7.34H10.26c-.79,0-1.52-.3-2.06-.86h0Z"/>
    </g>
    <g id="Y">
      <path class="cls-1" d="M24.5,5.24c0,.78-.3,1.52-.86,2.06-.55,.55-1.29,.86-2.06,.86h-3.16c-.78,0-1.52-.3-2.06-.86-.55-.55-.86-1.29-.86-2.06V2.07c0-1.14-.92-2.07-2.06-2.07H0V7.34H13.41c.78,0,1.52,.3,2.06,.86s.86,1.29,.86,2.06v3.17c0,1.14,.93,2.07,2.07,2.07h3.19c1.14,0,2.07-.93,2.07-2.07v-3.17c0-.78,.3-1.52,.86-2.06,.55-.55,1.29-.86,2.06-.86h3.17c1.14,0,2.07-.93,2.07-2.07V0h-7.34s0,5.24,0,5.24Z"/>
    </g>
    <g id="S">
      <path class="cls-1" d="M32.7,8.2c.55-.55,1.29-.86,2.06-.86h5.24V0h-5.26c-1.14,0-2.07,.93-2.07,2.07v3.17c0,.78-.3,1.52-.86,2.06-.55,.55-1.29,.86-2.06,.86h-3.17c-1.14,0-2.07,.93-2.07,2.07v3.19c0,1.14,.93,2.07,2.07,2.07h3.17c.78,0,1.52,.3,2.06,.86,.55,.55,.86,1.29,.86,2.06v3.16c0,.78-.3,1.52-.86,2.06-.55,.55-1.29,.86-2.06,.86H8.17v5.26c0,1.14,.93,2.07,2.07,2.07H29.77c1.14,0,2.07-.93,2.07-2.07v-3.17c0-.78,.3-1.52,.86-2.06,.55-.55,1.29-.86,2.06-.86h3.17c1.14,0,2.07-.93,2.07-2.07v-3.19c0-1.14-.93-2.07-2.07-2.07h-3.17c-.78,0-1.52-.3-2.06-.86-.55-.55-.86-1.29-.86-2.06v-3.15c0-.79,.3-1.53,.86-2.07Z"/>
    </g>
  </g>
  <g>
    <path class="cls-1" d="M47.83,5.21L44.35,.27h2.96l1.77,2.59,1.76-2.59h2.96l-3.5,4.93v4.56h-2.49V5.21h0Z"/>
    <path class="cls-1" d="M55.1,5.02c0-.7,.13-1.36,.39-1.97s.62-1.14,1.09-1.59c.47-.45,1.01-.8,1.66-1.06,.65-.26,1.36-.38,2.14-.38s1.48,.13,2.13,.38c.65,.26,1.21,.61,1.68,1.06,.47,.46,.83,.99,1.1,1.59,.26,.61,.38,1.27,.38,1.97s-.13,1.36-.39,1.97-.63,1.14-1.1,1.59c-.47,.46-1.02,.8-1.68,1.06-.65,.26-1.36,.38-2.13,.38s-1.49-.13-2.14-.38-1.21-.61-1.66-1.06c-.47-.46-.83-.99-1.09-1.59-.26-.61-.38-1.27-.38-1.97Zm2.59,0c0,.37,.07,.73,.22,1.04,.15,.32,.34,.59,.58,.83s.53,.42,.86,.55c.33,.13,.67,.19,1.03,.19s.7-.06,1.03-.19c.33-.13,.61-.31,.86-.55,.25-.24,.45-.51,.59-.83s.22-.67,.22-1.04-.07-.73-.22-1.04c-.16-.32-.36-.59-.6-.83s-.54-.42-.86-.55c-.33-.13-.67-.19-1.03-.19s-.7,.06-1.03,.19-.61,.31-.86,.55-.44,.51-.58,.83c-.14,.32-.21,.67-.21,1.04Z"/>
    <path class="cls-1" d="M71.24,.27V5.44c0,.27,0,.56,.03,.85,.02,.29,.08,.55,.19,.79,.11,.24,.27,.42,.5,.58s.55,.22,.96,.22,.73-.07,.96-.22c.23-.16,.39-.34,.5-.58s.17-.5,.2-.79c.02-.29,.03-.58,.03-.85V.27h2.47V5.77c0,1.48-.34,2.56-1.02,3.23-.69,.68-1.73,1.02-3.13,1.02s-2.46-.34-3.14-1.02-1.02-1.75-1.02-3.23V.27h2.49Z"/>
    <path class="cls-1" d="M88.55,9.77h-3.09l-2.37-3.65v3.65h-2.49V.27h3.86c.53,0,1,.07,1.39,.23s.72,.37,.98,.64c.26,.26,.46,.58,.58,.93,.13,.36,.2,.73,.2,1.13,0,.72-.17,1.31-.52,1.75-.35,.45-.87,.75-1.55,.91l3,3.89h0Zm-5.46-5.25h.47c.49,0,.87-.1,1.12-.3,.26-.2,.39-.49,.39-.87s-.13-.67-.39-.87-.64-.3-1.12-.3h-.47v2.34Z"/>
    <path class="cls-1" d="M50.78,17.81c-.27-.22-.54-.38-.81-.48-.27-.11-.53-.16-.79-.16-.32,0-.58,.07-.79,.23s-.3,.35-.3,.59c0,.16,.05,.31,.16,.41,.1,.11,.24,.2,.4,.28s.35,.15,.56,.21c.21,.05,.41,.12,.61,.19,.81,.26,1.41,.63,1.78,1.08s.57,1.03,.57,1.75c0,.48-.08,.93-.25,1.32s-.4,.73-.72,1.01c-.32,.28-.7,.5-1.16,.66s-.98,.23-1.56,.23c-1.21,0-2.33-.36-3.35-1.07l1.07-1.99c.37,.33,.74,.57,1.11,.73s.72,.24,1.08,.24c.4,0,.7-.09,.9-.27,.2-.18,.29-.39,.29-.63,0-.15-.03-.26-.07-.37-.05-.1-.14-.2-.26-.29-.12-.09-.27-.17-.47-.25s-.42-.16-.69-.25c-.32-.1-.64-.21-.94-.34-.31-.12-.58-.28-.82-.48-.24-.2-.44-.46-.58-.76s-.22-.69-.22-1.16,.08-.9,.24-1.28,.37-.71,.66-.98c.28-.27,.63-.48,1.04-.64s.87-.23,1.37-.23c.48,0,.97,.06,1.48,.19,.51,.13,1.01,.32,1.48,.58l-1.01,1.92h0Z"/>
    <path class="cls-1" d="M56.84,15.38l1.64,6.13,2.03-6.13h1.97l2.03,6.13,1.64-6.13h2.59l-2.85,9.49h-2.53l-1.87-5.5-1.87,5.5h-2.53l-2.85-9.49h2.59Z"/>
    <path class="cls-1" d="M73.76,15.38v9.49h-2.49V15.38h2.49Z"/>
    <path class="cls-1" d="M80.91,17.47v7.4h-2.49v-7.4h-2.04v-2.09h6.56v2.09h-2.04Z"/>
    <path class="cls-1" d="M92.36,18.55c-.58-.69-1.29-1.04-2.13-1.04-.37,0-.71,.06-1.03,.2s-.59,.32-.81,.55c-.23,.23-.41,.5-.54,.82s-.2,.66-.2,1.03,.06,.73,.2,1.04c.13,.32,.31,.59,.55,.83,.23,.24,.5,.42,.81,.56,.31,.14,.65,.2,1.01,.2,.79,0,1.51-.34,2.14-1.01v2.92l-.26,.09c-.38,.14-.73,.23-1.07,.29s-.66,.09-.98,.09c-.66,0-1.29-.13-1.89-.37-.6-.25-1.13-.59-1.6-1.04-.46-.45-.83-.98-1.11-1.6-.27-.61-.42-1.29-.42-2.02s.14-1.4,.41-2.01c.27-.61,.64-1.13,1.11-1.57,.46-.44,1-.79,1.6-1.03,.61-.25,1.24-.37,1.91-.37,.38,0,.75,.04,1.12,.12,.37,.08,.75,.2,1.16,.37v2.94h0Z"/>
    <path class="cls-1" d="M98.34,19.04h3.58v-3.66h2.49v9.49h-2.49v-3.91h-3.58v3.91h-2.49V15.38h2.49v3.66h0Z"/>
    <path class="cls-1" d="M48.02,30.48v7.4h2.98v2.09h-5.46v-9.49h2.49Z"/>
    <path class="cls-1" d="M56.27,30.48v9.49h-2.49v-9.49h2.49Z"/>
    <path class="cls-1" d="M65.27,32.57h-2.99v1.59h2.72v2.09h-2.72v3.73h-2.49v-9.5h5.47v2.09h0Z"/>
    <path class="cls-1" d="M73.7,32.57h-2.95v1.59h2.79v2.09h-2.79v1.64h2.95v2.09h-5.44v-9.5h5.44v2.09Z"/>
  </g>
</svg>