<?xml version="1.0" encoding="utf-8"?>
<!-- Generator: Adobe Illustrator 27.0.0, SVG Export Plug-In . SVG Version: 6.00 Build 0)  -->
<svg version="1.1" id="ysl-logo" xmlns="http://www.w3.org/2000/svg" xmlns:xlink="http://www.w3.org/1999/xlink" x="0px" y="0px"
	 viewBox="0 0 100.6 37.5" style="enable-background:new 0 0 100.6 37.5;" xml:space="preserve">
<style type="text/css">
	.st0{fill:#FFFFFF;}
</style>
<g id="L_00000170964264407698171990000009477223227361660599_">
	<path class="st0" d="M7.7,29.9c-0.5-0.5-0.8-1.2-0.8-1.9V9.6C6.9,8.5,6,7.7,5,7.7H0V28c0,1.1,0.9,1.9,1.9,1.9h3
		c0.7,0,1.4,0.3,1.9,0.8s0.8,1.2,0.8,1.9v3c0,1.1,0.9,1.9,1.9,1.9h20.3v-6.9H9.6C8.9,30.7,8.2,30.4,7.7,29.9L7.7,29.9z"/>
</g>
<g id="Y_00000119102549278613251630000002790325988117734060_">
	<path class="st0" d="M23,4.9c0,0.7-0.3,1.4-0.8,1.9S21,7.6,20.3,7.6h-3c-0.7,0-1.4-0.3-1.9-0.8s-0.8-1.2-0.8-1.9v-3
		c0-1.1-0.9-1.9-1.9-1.9H0v6.9h12.6c0.7,0,1.4,0.3,1.9,0.8s0.8,1.2,0.8,1.9v3c0,1.1,0.9,1.9,1.9,1.9h3c1.1,0,1.9-0.9,1.9-1.9v-3
		c0-0.7,0.3-1.4,0.8-1.9s1.2-0.8,1.9-0.8h3c1.1,0,1.9-0.9,1.9-1.9V0H23V4.9z"/>
</g>
<g id="S_00000070808664895190897660000010712409964373098113_">
	<path class="st0" d="M30.7,7.7c0.5-0.5,1.2-0.8,1.9-0.8h4.9V0h-4.9c-1.1,0-1.9,0.9-1.9,1.9v3c0,0.7-0.3,1.4-0.8,1.9
		S28.7,7.6,28,7.6h-3c-1.1,0-1.9,0.9-1.9,1.9v3c0,1.1,0.9,1.9,1.9,1.9h3c0.7,0,1.4,0.3,1.9,0.8s0.8,1.2,0.8,1.9v3
		c0,0.7-0.3,1.4-0.8,1.9s-1.2,0.8-1.9,0.8H7.7V28c0,1.1,0.9,1.9,1.9,1.9h18.3c1.1,0,1.9-0.9,1.9-1.9v-3c0-0.7,0.3-1.4,0.8-1.9
		s1.2-0.8,1.9-0.8h3c1.1,0,1.9-0.9,1.9-1.9v-3c0-1.1-0.9-1.9-1.9-1.9h-3c-0.7,0-1.4-0.3-1.9-0.8s-0.8-1.2-0.8-1.9v-3
		C29.9,8.9,30.2,8.2,30.7,7.7z"/>
</g>
<g id="your">
	<path id="y" class="st0" d="M47.5,4.9l-3.3-4.6H47l1.7,2.4l1.7-2.4h2.8l-3.3,4.6v4.3h-2.3L47.5,4.9L47.5,4.9z"/>
	<path id="o" class="st0" d="M54.4,4.7c0-0.7,0.1-1.3,0.4-1.9c0.2-0.6,0.6-1.1,1-1.5s1-0.8,1.6-1s1.3-0.4,2-0.4s1.4,0.1,2,0.4
		s1.1,0.6,1.6,1c0.4,0.4,0.8,0.9,1,1.5c0.2,0.6,0.4,1.2,0.4,1.9S64.2,6,63.9,6.6c-0.2,0.6-0.6,1.1-1,1.5c-0.4,0.4-1,0.8-1.6,1
		s-1.3,0.4-2,0.4s-1.4-0.1-2-0.4c-0.6-0.2-1.1-0.6-1.6-1c-0.4-0.4-0.8-0.9-1-1.5C54.5,6,54.4,5.4,54.4,4.7z M56.8,4.7
		c0,0.4,0.1,0.7,0.2,1c0.1,0.3,0.3,0.6,0.5,0.8C57.8,6.7,58,6.9,58.4,7c0.3,0.1,0.6,0.2,1,0.2c0.3,0,0.7-0.1,1-0.2s0.6-0.3,0.8-0.5
		s0.4-0.5,0.6-0.8c0.1-0.3,0.2-0.6,0.2-1s-0.1-0.7-0.2-1c-0.1-0.3-0.3-0.6-0.6-0.8c-0.2-0.2-0.5-0.4-0.8-0.5s-0.6-0.2-1-0.2
		c-0.3,0-0.7,0.1-1,0.2C58,2.6,57.8,2.7,57.5,3c-0.2,0.2-0.4,0.5-0.5,0.8C56.9,4,56.8,4.4,56.8,4.7z"/>
	<path id="u" class="st0" d="M69.5,0.3v4.8c0,0.3,0,0.5,0,0.8s0.1,0.5,0.2,0.7C69.8,6.9,70,7,70.2,7.2c0.2,0.1,0.5,0.2,0.9,0.2
		s0.7-0.1,0.9-0.2c0.2-0.1,0.4-0.3,0.5-0.5s0.2-0.5,0.2-0.7c0-0.3,0-0.5,0-0.8V0.3H75v5.2c0,1.4-0.3,2.4-1,3c-0.6,0.6-1.6,1-2.9,1
		s-2.3-0.3-3-1c-0.6-0.6-1-1.6-1-3V0.3H69.5z"/>
	<path id="r" class="st0" d="M85.8,9.2h-2.9l-2.2-3.4v3.4h-2.3V0.3H82c0.5,0,0.9,0.1,1.3,0.2s0.7,0.3,0.9,0.6
		c0.2,0.2,0.4,0.5,0.5,0.9s0.2,0.7,0.2,1.1c0,0.7-0.2,1.2-0.5,1.6s-0.8,0.7-1.5,0.9L85.8,9.2L85.8,9.2z M80.6,4.2H81
		c0.5,0,0.8-0.1,1.1-0.3c0.2-0.2,0.4-0.5,0.4-0.8s-0.1-0.6-0.4-0.8c-0.2-0.2-0.6-0.3-1-0.3h-0.4L80.6,4.2L80.6,4.2z"/>
</g>
<g id="switch">
	<path id="s" class="st0" d="M50.3,16.7c-0.3-0.2-0.5-0.4-0.8-0.5s-0.5-0.1-0.7-0.1c-0.3,0-0.5,0.1-0.7,0.2s-0.3,0.3-0.3,0.6
		c0,0.2,0,0.3,0.1,0.4s0.2,0.2,0.4,0.3c0.2,0.1,0.3,0.1,0.5,0.2s0.4,0.1,0.6,0.2c0.8,0.2,1.3,0.6,1.7,1s0.5,1,0.5,1.6
		c0,0.5-0.1,0.9-0.2,1.2c-0.2,0.4-0.4,0.7-0.7,1s-0.7,0.5-1.1,0.6c-0.4,0.1-0.9,0.2-1.5,0.2c-1.1,0-2.2-0.3-3.1-1l1-1.9
		c0.4,0.3,0.7,0.5,1,0.7s0.7,0.2,1,0.2c0.4,0,0.7-0.1,0.8-0.3c0.2-0.2,0.3-0.4,0.3-0.6c0-0.1,0-0.2-0.1-0.4c0-0.1-0.1-0.2-0.2-0.3
		c-0.1-0.1-0.3-0.2-0.4-0.2c-0.2-0.1-0.4-0.1-0.7-0.2s-0.6-0.2-0.9-0.3c-0.3-0.1-0.5-0.3-0.8-0.5c-0.2-0.2-0.4-0.4-0.5-0.7
		c-0.1-0.3-0.2-0.7-0.2-1.1s0.1-0.8,0.2-1.2c0.1-0.4,0.4-0.7,0.6-0.9c0.3-0.3,0.6-0.5,1-0.6s0.8-0.2,1.3-0.2c0.4,0,0.9,0.1,1.4,0.2
		c0.5,0.1,0.9,0.3,1.4,0.5L50.3,16.7L50.3,16.7z"/>
	<path id="w" class="st0" d="M56,14.4l1.5,5.8l1.9-5.8h1.9l1.9,5.8l1.5-5.8h2.4l-2.7,8.9H62l-1.8-5.2l-1.8,5.2H56l-2.7-8.9H56
		L56,14.4z"/>
	<path id="i_00000038399341783707791630000000517163327618144682_" class="st0" d="M71.9,17.9v5.4h-2.3v-5.4H71.9z"/>
	<circle id="logo-circle-move" class="st0" cx="70.8" cy="15.5" r="1.4"/>
	<path id="t" class="st0" d="M78.6,16.4v6.9h-2.3v-6.9h-1.9v-2h6.2v2H78.6L78.6,16.4z"/>
	<path id="c" class="st0" d="M89.3,17.4c-0.5-0.7-1.2-1-2-1c-0.4,0-0.7,0.1-1,0.2s-0.6,0.3-0.8,0.5c-0.2,0.2-0.4,0.5-0.5,0.8
		s-0.2,0.6-0.2,1c0,0.3,0.1,0.7,0.2,1s0.3,0.6,0.5,0.8c0.2,0.2,0.5,0.4,0.8,0.5s0.6,0.2,1,0.2c0.7,0,1.4-0.3,2-0.9v2.7l-0.2,0.1
		c-0.4,0.1-0.7,0.2-1,0.3s-0.6,0.1-0.9,0.1c-0.6,0-1.2-0.1-1.8-0.4c-0.6-0.2-1.1-0.6-1.5-1s-0.8-0.9-1-1.5c-0.3-0.6-0.4-1.2-0.4-1.9
		s0.1-1.3,0.4-1.9s0.6-1.1,1-1.5s0.9-0.7,1.5-1c0.6-0.2,1.2-0.4,1.8-0.4c0.4,0,0.7,0,1.1,0.1c0.3,0.1,0.7,0.2,1.1,0.4L89.3,17.4
		L89.3,17.4z"/>
	<path id="h" class="st0" d="M94.9,17.9h3.4v-3.4h2.3v8.9h-2.3v-3.7h-3.4v3.7h-2.3v-8.9h2.3V17.9L94.9,17.9z"/>
</g>
<g id="life">
	<path id="l" class="st0" d="M47.7,28.6v6.9h2.8v2h-5.1v-8.9H47.7L47.7,28.6z"/>
	<path id="i" class="st0" d="M55.5,28.6v8.9h-2.3v-8.9H55.5z"/>
	<path id="f" class="st0" d="M63.9,30.6h-2.8v1.5h2.6v2h-2.6v3.5h-2.3v-8.9h5.1V30.6L63.9,30.6z"/>
	<path id="e" class="st0" d="M71.8,30.6H69v1.5h2.6v2H69v1.5h2.8v2h-5.1v-8.9h5.1V30.6z"/>
</g>
</svg>
