<?xml version="1.0" encoding="UTF-8"?>
<svg id="_圖層_1" data-name="圖層 1" xmlns="http://www.w3.org/2000/svg" viewBox="0 0 192.78 192.19">
  <defs>
    <style>
      .cls-1 {
        fill: #fff;
      }

      .cls-2 {
        fill: #595959;
      }
    </style>
  </defs>
  <rect class="cls-2" x="-1495.74" y="-56.73" width="2713.42" height="709.43"/>
  <g id="_圖層_2" data-name="圖層 2">
    <g id="L">
      <path class="cls-1" d="M39.48,153.3c-2.66-2.66-4.12-6.19-4.12-9.95V49.35c0-5.51-4.49-10-10-10H0v104.07c0,5.51,4.49,10,10,10h15.28c3.76,0,7.29,1.46,9.95,4.12,2.66,2.66,4.12,6.19,4.12,9.95v15.29c0,5.51,4.49,10,10,10h104.07v-35.36H49.42c-3.75,0-7.29-1.46-9.94-4.12Z"/>
    </g>
    <g id="Y">
      <path class="cls-1" d="M118.07,25.28c0,3.76-1.46,7.29-4.12,9.95s-6.19,4.12-9.95,4.12h-15.22c-3.76,0-7.29-1.46-9.95-4.12-2.66-2.66-4.12-6.19-4.12-9.95V10C74.71,4.49,70.22,0,64.71,0H0V35.36H64.64c3.76,0,7.29,1.46,9.95,4.12,2.66,2.66,4.12,6.19,4.12,9.95v15.28c0,5.51,4.49,10,10,10h15.36c5.51,0,10-4.49,10-10v-15.28c0-3.76,1.46-7.29,4.12-9.95s6.19-4.12,9.95-4.12h15.29c5.51,0,10-4.49,10-10V0h-35.36s0,25.28,0,25.28Z"/>
    </g>
    <g id="S">
      <path class="cls-1" d="M157.54,39.48c2.66-2.66,6.19-4.12,9.95-4.12h25.29V0h-25.36C161.91,0,157.42,4.49,157.42,10v15.28c0,3.76-1.46,7.29-4.12,9.95-2.66,2.66-6.19,4.12-9.95,4.12h-15.28c-5.51,0-10,4.49-10,10v15.36c0,5.51,4.49,10,10,10h15.28c3.76,0,7.29,1.46,9.95,4.12s4.12,6.19,4.12,9.95v15.22c0,3.76-1.46,7.29-4.12,9.95-2.66,2.66-6.19,4.12-9.95,4.12H39.35v25.36c0,5.51,4.49,10,10,10h94.07c5.51,0,10-4.49,10-10v-15.29c0-3.76,1.46-7.29,4.12-9.95s6.19-4.12,9.95-4.12h15.29c5.51,0,10-4.49,10-10v-15.36c0-5.51-4.49-10-10-10h-15.29c-3.76,0-7.29-1.46-9.95-4.12s-4.12-6.19-4.12-9.95v-15.21c0-3.76,1.47-7.3,4.12-9.95Z"/>
    </g>
  </g>
</svg>