<svg xmlns="http://www.w3.org/2000/svg" viewBox="0 0 24 24" id="7-eleven"><path fill="#007A4E" d="M2 0h20a2 2 0 0 1 2 2v20a2 2 0 0 1-2 2H2a2 2 0 0 1-2-2V2a2 2 0 0 1 2-2z"></path><path fill="#FFF" d="m20.686 2-17.553.054c-.327.099-.613.421-.633.77l1.803 17.358c.122.544.449.78.713.812.315 0 13.626.008 13.938.006.34-.074.664-.368.739-.723l1.798-17.231c.057-.616-.321-.976-.805-1.046z"></path><path fill="#FFC107" d="M18.5 3h-13a.5.5 0 0 0-.5.5v4a.5.5 0 0 0 .5.5h7.23a.5.5 0 0 0 .285-.089l5.77-4A.5.5 0 0 0 18.5 3z"></path><path fill="#F44336" d="M18.826 3.121a.492.492 0 0 0-.401-.115c-1.71.259-4.105 2.127-5.299 3.321-1.701 1.642-2.862 4.006-3.125 5.469-.542 2.32-1 6.266-1 8.617 0 .026.015.135.02.161.039.242.248.42.493.421L14.49 21a.5.5 0 0 0 .5-.5c0-1.814 0-5.192.65-8.524.302-1.593 1.758-2.926 3.066-3.539a.5.5 0 0 0 .288-.452L19 3.5a.499.499 0 0 0-.174-.379z"></path></svg>