<svg width="16" height="17" viewBox="0 0 16 17" fill="none" xmlns="http://www.w3.org/2000/svg">
<g clip-path="url(#clip0_1605_17901)">
<path d="M11.4423 5.06128C11.1822 4.80117 11.03 4.45248 11.016 4.08495C11.0019 3.71742 11.1272 3.35815 11.3666 3.07898C11.3864 3.05576 11.3967 3.02591 11.3955 2.99542C11.3942 2.96493 11.3814 2.93605 11.3598 2.91456L9.98039 1.53364C9.95759 1.51085 9.92667 1.49805 9.89443 1.49805C9.8622 1.49805 9.83128 1.51085 9.80848 1.53364L7.60987 3.73224C7.52875 3.81334 7.46765 3.91223 7.4314 4.02106V4.02106C7.39529 4.13014 7.33425 4.2293 7.25314 4.31068C7.17203 4.39207 7.07307 4.45343 6.96411 4.48991V4.48991C6.85521 4.5262 6.75623 4.58729 6.67498 4.66838L1.03657 10.3055C1.01378 10.3283 1.00098 10.3593 1.00098 10.3915C1.00098 10.4237 1.01378 10.4547 1.03657 10.4775L2.41593 11.8568C2.43742 11.8785 2.4663 11.8913 2.49679 11.8925C2.52728 11.8938 2.55712 11.8835 2.58034 11.8637C2.85946 11.624 3.21881 11.4986 3.58647 11.5125C3.95412 11.5264 4.30294 11.6787 4.5631 11.9389C4.82326 12.199 4.97555 12.5479 4.9895 12.9155C5.00344 13.2832 4.878 13.6425 4.63829 13.9216C4.61849 13.9449 4.60819 13.9747 4.60946 14.0052C4.61074 14.0357 4.62349 14.0646 4.64517 14.0861L6.02453 15.4654C6.04733 15.4882 6.07825 15.501 6.11049 15.501C6.14272 15.501 6.17364 15.4882 6.19644 15.4654L11.8352 9.82701C11.9163 9.74576 11.9774 9.64678 12.0136 9.53788V9.53788C12.0498 9.4288 12.1108 9.32964 12.1919 9.24825C12.273 9.16687 12.372 9.10551 12.4809 9.06903V9.06903C12.5898 9.03278 12.6886 8.97167 12.7697 8.89055L14.9684 6.69195C14.9911 6.66915 15.0039 6.63823 15.0039 6.60599C15.0039 6.57376 14.9911 6.54284 14.9684 6.52004L13.589 5.14067C13.5675 5.119 13.5386 5.10625 13.5081 5.10497C13.4776 5.1037 13.4478 5.11399 13.4246 5.1338C13.1458 5.37365 12.7867 5.49943 12.4192 5.48599C12.0517 5.47255 11.7028 5.32087 11.4423 5.06128V5.06128Z" stroke="url(#paint0_linear_1605_17901)" stroke-width="1.00189" stroke-miterlimit="10"/>
<path d="M11.4423 5.06128C11.1822 4.80117 11.03 4.45248 11.016 4.08495C11.0019 3.71742 11.1272 3.35815 11.3666 3.07898C11.3864 3.05576 11.3967 3.02591 11.3955 2.99542C11.3942 2.96493 11.3814 2.93605 11.3598 2.91456L9.98039 1.53364C9.95759 1.51085 9.92667 1.49805 9.89443 1.49805C9.8622 1.49805 9.83128 1.51085 9.80848 1.53364L7.60987 3.73224C7.52875 3.81334 7.46765 3.91223 7.4314 4.02106V4.02106C7.39529 4.13014 7.33425 4.2293 7.25314 4.31068C7.17203 4.39207 7.07307 4.45343 6.96411 4.48991V4.48991C6.85521 4.5262 6.75623 4.58729 6.67498 4.66838L1.03657 10.3055C1.01378 10.3283 1.00098 10.3593 1.00098 10.3915C1.00098 10.4237 1.01378 10.4547 1.03657 10.4775L2.41593 11.8568C2.43742 11.8785 2.4663 11.8913 2.49679 11.8925C2.52728 11.8938 2.55712 11.8835 2.58034 11.8637C2.85946 11.624 3.21881 11.4986 3.58647 11.5125C3.95412 11.5264 4.30294 11.6787 4.5631 11.9389C4.82326 12.199 4.97555 12.5479 4.9895 12.9155C5.00344 13.2832 4.878 13.6425 4.63829 13.9216C4.61849 13.9449 4.60819 13.9747 4.60946 14.0052C4.61074 14.0357 4.62349 14.0646 4.64517 14.0861L6.02453 15.4654C6.04733 15.4882 6.07825 15.501 6.11049 15.501C6.14272 15.501 6.17364 15.4882 6.19644 15.4654L11.8352 9.82701C11.9163 9.74576 11.9774 9.64678 12.0136 9.53788V9.53788C12.0498 9.4288 12.1108 9.32964 12.1919 9.24825C12.273 9.16687 12.372 9.10551 12.4809 9.06903V9.06903C12.5898 9.03278 12.6886 8.97167 12.7697 8.89055L14.9684 6.69195C14.9911 6.66915 15.0039 6.63823 15.0039 6.60599C15.0039 6.57376 14.9911 6.54284 14.9684 6.52004L13.589 5.14067C13.5675 5.119 13.5386 5.10625 13.5081 5.10497C13.4776 5.1037 13.4478 5.11399 13.4246 5.1338C13.1458 5.37365 12.7867 5.49943 12.4192 5.48599C12.0517 5.47255 11.7028 5.32087 11.4423 5.06128V5.06128Z" stroke="url(#paint1_linear_1605_17901)" stroke-opacity="0.2" stroke-width="1.00189" stroke-miterlimit="10"/>
<path d="M7.8358 4.89342L7.31396 4.37158" stroke="url(#paint2_linear_1605_17901)" stroke-width="1.00189" stroke-miterlimit="10" stroke-linecap="round"/>
<path d="M7.8358 4.89342L7.31396 4.37158" stroke="url(#paint3_linear_1605_17901)" stroke-opacity="0.2" stroke-width="1.00189" stroke-miterlimit="10" stroke-linecap="round"/>
<path d="M9.21346 6.26978L8.8623 5.91895" stroke="url(#paint4_linear_1605_17901)" stroke-width="1.00189" stroke-miterlimit="10" stroke-linecap="round"/>
<path d="M9.21346 6.26978L8.8623 5.91895" stroke="url(#paint5_linear_1605_17901)" stroke-opacity="0.2" stroke-width="1.00189" stroke-miterlimit="10" stroke-linecap="round"/>
<path d="M10.5891 7.64656L10.2383 7.29541" stroke="url(#paint6_linear_1605_17901)" stroke-width="1.00189" stroke-miterlimit="10" stroke-linecap="round"/>
<path d="M10.5891 7.64656L10.2383 7.29541" stroke="url(#paint7_linear_1605_17901)" stroke-opacity="0.2" stroke-width="1.00189" stroke-miterlimit="10" stroke-linecap="round"/>
<path d="M12.1361 9.19225L11.6143 8.67041" stroke="url(#paint8_linear_1605_17901)" stroke-width="1.00189" stroke-miterlimit="10" stroke-linecap="round"/>
<path d="M12.1361 9.19225L11.6143 8.67041" stroke="url(#paint9_linear_1605_17901)" stroke-opacity="0.2" stroke-width="1.00189" stroke-miterlimit="10" stroke-linecap="round"/>
</g>
<defs>
<linearGradient id="paint0_linear_1605_17901" x1="3.81129" y1="19.0497" x2="22.2098" y2="19.0547" gradientUnits="userSpaceOnUse">
<stop stop-color="#F7273A"/>
<stop offset="0.401296" stop-color="#F7273A" stop-opacity="0.546859"/>
<stop offset="1" stop-color="#F7273A" stop-opacity="0"/>
</linearGradient>
<linearGradient id="paint1_linear_1605_17901" x1="15.0039" y1="4.32744" x2="2.81392" y2="4.51026" gradientUnits="userSpaceOnUse">
<stop offset="0.306449" stop-color="#3189F0"/>
<stop offset="1" stop-opacity="0"/>
</linearGradient>
<linearGradient id="paint2_linear_1605_17901" x1="7.4187" y1="5.02567" x2="8.10434" y2="5.02585" gradientUnits="userSpaceOnUse">
<stop stop-color="#F7273A"/>
<stop offset="0.401296" stop-color="#F7273A" stop-opacity="0.546859"/>
<stop offset="1" stop-color="#F7273A" stop-opacity="0"/>
</linearGradient>
<linearGradient id="paint3_linear_1605_17901" x1="7.8358" y1="4.47702" x2="7.38153" y2="4.48384" gradientUnits="userSpaceOnUse">
<stop offset="0.306449" stop-color="#3189F0"/>
<stop offset="1" stop-opacity="0"/>
</linearGradient>
<linearGradient id="paint4_linear_1605_17901" x1="8.93278" y1="6.35869" x2="9.39415" y2="6.35881" gradientUnits="userSpaceOnUse">
<stop stop-color="#F7273A"/>
<stop offset="0.401296" stop-color="#F7273A" stop-opacity="0.546859"/>
<stop offset="1" stop-color="#F7273A" stop-opacity="0"/>
</linearGradient>
<linearGradient id="paint5_linear_1605_17901" x1="9.21346" y1="5.98983" x2="8.90777" y2="5.99442" gradientUnits="userSpaceOnUse">
<stop offset="0.306449" stop-color="#3189F0"/>
<stop offset="1" stop-opacity="0"/>
</linearGradient>
<linearGradient id="paint6_linear_1605_17901" x1="10.3087" y1="7.73555" x2="10.7696" y2="7.73567" gradientUnits="userSpaceOnUse">
<stop stop-color="#F7273A"/>
<stop offset="0.401296" stop-color="#F7273A" stop-opacity="0.546859"/>
<stop offset="1" stop-color="#F7273A" stop-opacity="0"/>
</linearGradient>
<linearGradient id="paint7_linear_1605_17901" x1="10.5891" y1="7.36636" x2="10.2837" y2="7.37094" gradientUnits="userSpaceOnUse">
<stop offset="0.306449" stop-color="#3189F0"/>
<stop offset="1" stop-opacity="0"/>
</linearGradient>
<linearGradient id="paint8_linear_1605_17901" x1="11.719" y1="9.3245" x2="12.4046" y2="9.32468" gradientUnits="userSpaceOnUse">
<stop stop-color="#F7273A"/>
<stop offset="0.401296" stop-color="#F7273A" stop-opacity="0.546859"/>
<stop offset="1" stop-color="#F7273A" stop-opacity="0"/>
</linearGradient>
<linearGradient id="paint9_linear_1605_17901" x1="12.1361" y1="8.77585" x2="11.6818" y2="8.78266" gradientUnits="userSpaceOnUse">
<stop offset="0.306449" stop-color="#3189F0"/>
<stop offset="1" stop-opacity="0"/>
</linearGradient>
<clipPath id="clip0_1605_17901">
<rect width="16.0035" height="16.0035" fill="white" transform="translate(0 0.498047)"/>
</clipPath>
</defs>
</svg>
