<svg width="25" height="25" viewBox="0 0 25 25" fill="none" xmlns="http://www.w3.org/2000/svg">
<path d="M3.125 8.854C3.125 7.27989 3.125 6.49283 3.41303 5.88384C3.70978 5.25641 4.21491 4.75129 4.84233 4.45454C5.45133 4.1665 6.23838 4.1665 7.8125 4.1665H17.1875C18.7616 4.1665 19.5487 4.1665 20.1577 4.45454C20.7851 4.75129 21.2902 5.25641 21.587 5.88384C21.875 6.49283 21.875 7.27989 21.875 8.854V9.63525C21.875 10.0667 21.5252 10.4165 21.0937 10.4165H20.8333C19.6827 10.4165 18.75 11.3492 18.75 12.4998V12.4998C18.75 13.6504 19.6827 14.5832 20.8333 14.5832H21.0937C21.5252 14.5832 21.875 14.9329 21.875 15.3644V16.1457C21.875 17.7198 21.875 18.5068 21.587 19.1158C21.2902 19.7433 20.7851 20.2484 20.1577 20.5451C19.5487 20.8332 18.7616 20.8332 17.1875 20.8332H7.8125C6.23838 20.8332 5.45133 20.8332 4.84233 20.5451C4.21491 20.2484 3.70978 19.7433 3.41303 19.1158C3.125 18.5068 3.125 17.7198 3.125 16.1457V15.3644C3.125 14.9329 3.47478 14.5832 3.90625 14.5832H4.16667C5.31726 14.5832 6.25 13.6504 6.25 12.4998V12.4998C6.25 11.3492 5.31726 10.4165 4.16667 10.4165H3.90625C3.47478 10.4165 3.125 10.0667 3.125 9.63525V8.854Z" stroke="#ED5260" stroke-width="2"/>
<path d="M12.0381 11.1337C12.2133 10.6806 12.3008 10.4541 12.4431 10.4227C12.4805 10.4144 12.5192 10.4144 12.5566 10.4227C12.6988 10.4541 12.7864 10.6806 12.9615 11.1337C13.0611 11.3914 13.1109 11.5202 13.2041 11.6079C13.2303 11.6325 13.2586 11.6543 13.2888 11.6732C13.3965 11.7406 13.531 11.7531 13.7999 11.7781C14.255 11.8204 14.4826 11.8415 14.5521 11.9762C14.5665 12.0041 14.5763 12.0343 14.5811 12.0655C14.6041 12.2164 14.4368 12.3744 14.1022 12.6903L14.0093 12.7781C13.8528 12.9258 13.7746 12.9996 13.7294 13.0918C13.7022 13.1471 13.684 13.2066 13.6755 13.268C13.6613 13.3704 13.6842 13.4775 13.73 13.6918L13.7464 13.7684C13.8285 14.1527 13.8696 14.3448 13.8183 14.4392C13.7723 14.5241 13.6874 14.5784 13.5937 14.583C13.4894 14.5882 13.3423 14.4639 13.0483 14.2152C12.8546 14.0514 12.7577 13.9695 12.6502 13.9375C12.5519 13.9083 12.4477 13.9083 12.3495 13.9375C12.2419 13.9695 12.1451 14.0514 11.9514 14.2152C11.6573 14.4639 11.5103 14.5882 11.406 14.583C11.3123 14.5784 11.2274 14.5241 11.1814 14.4392C11.1301 14.3448 11.1712 14.1527 11.2533 13.7684L11.2697 13.6918C11.3155 13.4775 11.3384 13.3704 11.3242 13.268C11.3157 13.2066 11.2975 13.1471 11.2703 13.0918C11.2251 12.9996 11.1469 12.9258 10.9904 12.7781L10.8975 12.6903C10.5629 12.3744 10.3956 12.2164 10.4186 12.0655C10.4234 12.0343 10.4332 12.0041 10.4476 11.9762C10.5171 11.8415 10.7446 11.8204 11.1998 11.7781C11.4687 11.7531 11.6031 11.7406 11.7108 11.6732C11.7411 11.6543 11.7694 11.6325 11.7956 11.6079C11.8887 11.5202 11.9385 11.3914 12.0381 11.1337Z" fill="#ED5260" stroke="#ED5260"/>
</svg>
