<?xml version="1.0" encoding="UTF-8"?>
<svg id="_圖層_1" data-name="圖層 1" xmlns="http://www.w3.org/2000/svg" viewBox="0 0 20 20">
  <defs>
    <style>
      .cls-1 {
        fill: #fff;
      }
    </style>
  </defs>
  <path class="cls-1" d="M8.82,18.29l-.1-.09L1.88,11.84c-1.2-1.11-1.88-2.68-1.88-4.31v-.13C0,4.65,1.95,2.29,4.66,1.78c1.54-.3,3.11,.06,4.37,.94,.35,.25,.68,.54,.98,.87,.16-.19,.34-.36,.53-.52,.14-.12,.29-.24,.45-.35h0c1.25-.88,2.83-1.24,4.37-.95,2.7,.52,4.66,2.88,4.66,5.63v.13c0,1.64-.68,3.2-1.88,4.31l-6.84,6.36-.1,.09c-.32,.3-.74,.46-1.18,.46s-.86-.16-1.18-.46Zm.52-12.63s-.03-.03-.04-.04l-.7-.78h0c-.9-1.02-2.27-1.48-3.59-1.22-1.82,.35-3.13,1.93-3.13,3.79v.13c0,1.11,.46,2.18,1.28,2.94l6.84,6.36,6.84-6.36c.82-.76,1.28-1.82,1.28-2.94v-.13c0-1.85-1.31-3.44-3.13-3.79-1.33-.25-2.7,.21-3.59,1.22h0s0,0,0,0l-.7,.78s-.03,.03-.04,.04c-.18,.18-.41,.27-.66,.27s-.48-.1-.66-.27h0Z"/>
</svg>